<svg width="91" height="100" viewBox="0 0 91 100" fill="none" xmlns="http://www.w3.org/2000/svg">
<path d="M90.3325 87.4853C90.3696 94.3511 84.8326 99.9416 77.971 99.9787C77.4609 99.9828 76.9466 99.954 76.4407 99.8923C70.0727 98.9502 65.4078 93.4091 65.5641 86.9752V13.0025C65.4119 6.56047 70.0892 1.0193 76.4612 0.0854891C83.2776 -0.71257 89.4522 4.16629 90.2503 10.9827C90.3079 11.4846 90.3367 11.9864 90.3325 12.4924V87.4853Z" fill="#F9AB00"/>
<path d="M12.3864 75.2263C19.2274 75.2263 24.7727 80.7715 24.7727 87.6126C24.7727 94.4537 19.2274 99.999 12.3864 99.999C5.54527 99.999 0 94.4537 0 87.6126C0 80.7715 5.54527 75.2263 12.3864 75.2263ZM44.9751 37.6887C38.1011 38.0671 32.7698 43.8305 32.9302 50.7127V83.9802C32.9302 93.0098 36.904 98.4893 42.7249 99.6576C49.4426 101.019 55.9875 96.6792 57.3491 89.9616C57.5178 89.1388 57.6001 88.3037 57.596 87.4645V50.1368C57.6083 43.271 52.0548 37.6969 45.189 37.6846C45.1191 37.6846 45.0451 37.6846 44.9751 37.6887Z" fill="#E37400"/>
</svg>
