<svg width="100" height="66" viewBox="0 0 100 66" fill="none" xmlns="http://www.w3.org/2000/svg">
<path d="M81.1132 23.2865C78.97 16.5662 74.7572 10.6954 69.0769 6.51332C63.3966 2.33122 56.5397 0.0518598 49.4861 0.00102802C43.5225 -0.0331687 37.6623 1.55819 32.5352 4.60413C27.408 7.65006 23.2077 12.0354 20.3855 17.2891C15.1986 18.2186 10.4438 20.7793 6.81302 24.5983C3.18224 28.4174 0.865056 33.2955 0.198717 38.5227C-0.467622 43.7499 0.551666 49.0534 3.10823 53.6611C5.66478 58.2689 9.62518 61.9405 14.413 64.1416L15.0343 64.4232H15.0757V57.3821C11.7912 55.366 9.21997 52.3726 7.72227 48.8217C6.22458 45.2707 5.87551 41.3401 6.724 37.5808C7.5725 33.8215 9.57602 30.4219 12.4538 27.8585C15.3315 25.2951 18.9392 23.6964 22.7712 23.2865L24.5108 23.1042L25.2729 21.5386C27.4367 16.9528 30.8648 13.0801 35.154 10.3756C39.4433 7.67117 44.4155 6.24744 49.4861 6.27178C55.528 6.3144 61.3823 8.37585 66.1179 12.1283C70.8534 15.8808 74.1985 21.1088 75.6211 26.981L76.2175 29.3501H78.7027C82.7088 29.4323 86.524 31.0777 89.3333 33.935C92.1426 36.7923 93.7232 40.6348 93.7375 44.6418C93.7375 50.4818 90.3661 55.2615 84.6255 57.6803V64.357L85.0397 64.2244C94.2677 61.2009 100 53.6959 100 44.6418C99.962 39.4014 98.0285 34.3519 94.5567 30.4264C91.085 26.5009 86.3096 23.9647 81.1132 23.2865Z" fill="#3448C5"/>
<path d="M37.3417 63.6117L38.7168 64.9868C38.7539 65.025 38.7791 65.0732 38.7892 65.1255C38.7993 65.1778 38.7939 65.2319 38.7736 65.2812C38.7534 65.3305 38.7192 65.3728 38.6753 65.4029C38.6313 65.433 38.5795 65.4496 38.5262 65.4507H27.6746C26.3564 65.4507 25.0922 64.927 24.1601 63.9949C23.228 63.0628 22.7044 61.7986 22.7044 60.4805V39.4068C22.7044 39.3343 22.6756 39.2647 22.6243 39.2135C22.5731 39.1622 22.5035 39.1334 22.431 39.1334H20.1116C20.0576 39.134 20.0047 39.1185 19.9595 39.089C19.9143 39.0596 19.8788 39.0174 19.8576 38.9677C19.8363 38.9181 19.8302 38.8633 19.84 38.8103C19.8499 38.7572 19.8752 38.7082 19.9128 38.6695L29.1243 29.4581C29.1497 29.4323 29.18 29.4118 29.2134 29.3978C29.2468 29.3838 29.2827 29.3766 29.3189 29.3766C29.3551 29.3766 29.391 29.3838 29.4244 29.3978C29.4578 29.4118 29.4882 29.4323 29.5136 29.4581L38.7168 38.6695C38.7539 38.7077 38.7791 38.7559 38.7892 38.8082C38.7993 38.8605 38.7939 38.9147 38.7736 38.964C38.7534 39.0132 38.7192 39.0555 38.6753 39.0856C38.6313 39.1157 38.5795 39.1323 38.5262 39.1334H36.1737C36.1004 39.1334 36.03 39.1619 35.9774 39.2129C35.9248 39.264 35.8942 39.3335 35.892 39.4068V60.116C35.8954 61.4268 36.4164 62.6832 37.3417 63.6117ZM57.6947 63.6117L59.0781 64.9868C59.1157 65.0255 59.141 65.0745 59.1508 65.1275C59.1607 65.1806 59.1546 65.2354 59.1333 65.285C59.112 65.3346 59.0766 65.3768 59.0314 65.4063C58.9861 65.4358 58.9332 65.4512 58.8792 65.4507H48.0525C46.7343 65.4507 45.4701 64.927 44.538 63.9949C43.6059 63.0628 43.0823 61.7986 43.0823 60.4805V44.7332C43.0823 44.6599 43.0538 44.5895 43.0027 44.5369C42.9517 44.4843 42.8821 44.4537 42.8089 44.4515H40.4646C40.4114 44.4505 40.3596 44.4339 40.3156 44.4038C40.2716 44.3737 40.2374 44.3314 40.2172 44.2821C40.197 44.2328 40.1916 44.1787 40.2017 44.1264C40.2118 44.0741 40.2369 44.0258 40.2741 43.9876L49.4773 34.7928C49.5027 34.767 49.533 34.7465 49.5664 34.7325C49.5998 34.7185 49.6357 34.7113 49.6719 34.7113C49.7082 34.7113 49.744 34.7185 49.7774 34.7325C49.8109 34.7465 49.8412 34.767 49.8666 34.7928L59.0781 43.9711C59.1157 44.0098 59.141 44.0588 59.1508 44.1118C59.1607 44.1649 59.1546 44.2197 59.1333 44.2693C59.112 44.3189 59.0766 44.3611 59.0314 44.3906C58.9861 44.4201 58.9332 44.4355 58.8792 44.435H56.5267C56.4534 44.4371 56.3839 44.4677 56.3329 44.5203C56.2818 44.5729 56.2533 44.6433 56.2533 44.7166V60.116C56.2545 61.4256 56.7724 62.6819 57.6947 63.6117ZM78.056 63.6117L79.4311 64.9868C79.4682 65.025 79.4934 65.0732 79.5035 65.1255C79.5136 65.1778 79.5082 65.2319 79.488 65.2812C79.4677 65.3305 79.4335 65.3728 79.3896 65.4029C79.3456 65.433 79.2938 65.4496 79.2405 65.4507H68.3806C67.0625 65.4507 65.7983 64.927 64.8662 63.9949C63.9341 63.0628 63.4104 61.7986 63.4104 60.4805V50.0182C63.4104 49.9457 63.3816 49.8761 63.3304 49.8249C63.2791 49.7736 63.2096 49.7448 63.1371 49.7448H60.8176C60.7626 49.7454 60.7088 49.7294 60.663 49.6989C60.6173 49.6683 60.5818 49.6247 60.5612 49.5737C60.5406 49.5228 60.5359 49.4667 60.5477 49.413C60.5594 49.3593 60.5871 49.3104 60.6271 49.2726L69.8386 40.0695C69.8633 40.0439 69.8929 40.0236 69.9256 40.0097C69.9583 39.9958 69.9935 39.9887 70.0291 39.9887C70.0646 39.9887 70.0998 39.9958 70.1326 40.0097C70.1653 40.0236 70.1949 40.0439 70.2196 40.0695L79.4311 49.2726C79.4711 49.3104 79.4987 49.3593 79.5105 49.413C79.5223 49.4667 79.5175 49.5228 79.497 49.5737C79.4764 49.6247 79.4409 49.6683 79.3952 49.6989C79.3494 49.7294 79.2955 49.7454 79.2405 49.7448H76.8797C76.8072 49.7448 76.7377 49.7736 76.6864 49.8249C76.6351 49.8761 76.6063 49.9457 76.6063 50.0182V60.116C76.6097 61.4268 77.1307 62.6832 78.056 63.6117Z" fill="#3448C5"/>
</svg>
