<svg width="79" height="100" viewBox="0 0 79 100" fill="none" xmlns="http://www.w3.org/2000/svg">
<path d="M35.2064 0.000488281H51.5478V74.8984C43.1774 76.4817 37.0154 77.1047 30.3483 77.1047C10.3895 77.0838 0 68.1672 0 51.0422C0 34.5422 11.0204 23.8338 28.0979 23.8338C30.7479 23.8338 32.7668 24.0423 35.2064 24.6671V0.000488281ZM35.779 38.1646C33.8651 37.5395 32.288 37.3312 30.2688 37.3312C22.0037 37.3312 17.2296 42.3728 17.2296 51.2081C17.2296 59.8103 21.7936 64.5602 30.1639 64.5602C31.9724 64.5602 33.4446 64.4584 35.779 64.1458V38.1646Z" fill="#2BA977"/>
<path d="M78.2706 25.8446V63.345C78.2706 76.2594 77.3033 82.4698 74.464 87.8242C71.8139 92.9718 68.3228 96.2178 61.1091 99.8031L45.9456 92.6575C53.1593 89.305 56.6503 86.3427 58.8799 81.822C61.214 77.1991 61.9501 71.8447 61.9501 57.7615V25.8449H78.2706V25.8446ZM60.3034 0.000488281H76.6447V16.6047H60.3034V0.000488281Z" fill="#2BA977"/>
</svg>
