<svg width="100" height="72" viewBox="0 0 100 72" fill="none" xmlns="http://www.w3.org/2000/svg">
<path d="M99.014 27.0887C98.7428 26.8733 96.211 24.9616 90.8716 24.9616C89.4617 24.9678 88.0548 25.0887 86.6646 25.3232C85.6312 18.2401 79.7751 14.7867 79.5125 14.6318L78.0788 13.8049L77.1358 15.1657C75.9549 16.9936 75.0928 19.0086 74.5867 21.125C73.6307 25.1683 74.2121 28.966 76.266 32.2127C73.7858 33.5948 69.8072 33.9351 69.002 33.9651H3.13051C1.40996 33.9675 0.0138216 35.3579 0.00444499 37.0783C-0.0723876 42.849 0.905303 48.5853 2.88937 54.0047C5.15852 59.9555 8.5344 64.3389 12.9264 67.0215C17.8481 70.0356 25.8441 71.7579 34.908 71.7579C39.0026 71.7708 43.0896 71.4002 47.1152 70.6513C52.7113 69.6238 58.0961 67.6679 63.047 64.8641C67.1264 62.5018 70.7979 59.4965 73.9194 55.9639C79.1382 50.0562 82.2472 43.4767 84.5593 37.6295H85.4807C91.1946 37.6295 94.7083 35.343 96.6459 33.4269C97.9336 32.2049 98.9389 30.7162 99.5912 29.0651L100 27.8681L99.014 27.0887Z" fill="#2496ED"/>
<path d="M9.23628 32.0362H18.0633C18.4891 32.0362 18.8341 31.6911 18.8341 31.2655V23.4028C18.8364 22.9771 18.4933 22.6302 18.0677 22.6278C18.0663 22.6278 18.0647 22.6278 18.0633 22.6278H9.23628C8.81055 22.6278 8.46558 22.9729 8.46558 23.3985V23.4028V31.2654C8.46558 31.6911 8.81055 32.0362 9.23628 32.0362Z" fill="#2496ED"/>
<path d="M21.4004 32.0362H30.2275C30.6532 32.0362 30.9982 31.6911 30.9982 31.2655V23.4028C31.0006 22.9771 30.6574 22.6302 30.2317 22.6278C30.2303 22.6278 30.2288 22.6278 30.2274 22.6278H21.4003C20.9722 22.6278 20.6252 22.9747 20.6252 23.4028V31.2654C20.6278 31.6918 20.974 32.0362 21.4004 32.0362Z" fill="#2496ED"/>
<path d="M33.7496 32.0362H42.5767C43.0024 32.0362 43.3474 31.6911 43.3474 31.2655V23.4028C43.3498 22.9771 43.0066 22.6302 42.5809 22.6278C42.5795 22.6278 42.5779 22.6278 42.5765 22.6278H33.7495C33.3237 22.6278 32.9788 22.9729 32.9788 23.3985V23.4028V31.2654C32.9789 31.6911 33.324 32.0362 33.7496 32.0362Z" fill="#2496ED"/>
<path d="M45.9526 32.0362H54.7797C55.2061 32.0362 55.5523 31.6919 55.5547 31.2655V23.4028C55.5547 22.9747 55.2078 22.6278 54.7797 22.6278H45.9526C45.5269 22.6278 45.1819 22.9729 45.1819 23.3985V23.4028V31.2654C45.1819 31.6911 45.527 32.0362 45.9526 32.0362Z" fill="#2496ED"/>
<path d="M21.4005 20.7247H30.2276C30.6539 20.7223 30.9983 20.3759 30.9983 19.9496V12.0871C30.9983 11.6614 30.6532 11.3164 30.2276 11.3164H21.4005C20.9742 11.3164 20.6279 11.6607 20.6255 12.0871V19.9496C20.6279 20.3768 20.9734 20.7223 21.4005 20.7247Z" fill="#2496ED"/>
<path d="M33.7497 20.7247H42.5768C43.0031 20.7223 43.3475 20.3759 43.3475 19.9496V12.0871C43.3475 11.6614 43.0024 11.3164 42.5768 11.3164H33.7497C33.324 11.3164 32.979 11.6615 32.979 12.0871V19.9496C32.979 20.3759 33.3234 20.7223 33.7497 20.7247Z" fill="#2496ED"/>
<path d="M45.9526 20.7247H54.7797C55.2068 20.7223 55.5523 20.3768 55.5547 19.9496V12.0871C55.5523 11.6607 55.2061 11.3164 54.7797 11.3164H45.9526C45.5269 11.3164 45.1819 11.6615 45.1819 12.0871V19.9496C45.1819 20.3759 45.5263 20.7223 45.9526 20.7247Z" fill="#2496ED"/>
<path d="M45.9526 9.40891H54.7797C55.2061 9.40891 55.5523 9.06449 55.5547 8.6382V0.771193C55.5523 0.344765 55.2061 0.000488281 54.7797 0.000488281H45.9526C45.5269 0.000488281 45.1819 0.345465 45.1819 0.771193V8.63806C45.1819 9.06379 45.527 9.40891 45.9526 9.40891Z" fill="#2496ED"/>
<path d="M58.2631 32.0362H67.0902C67.5166 32.0362 67.8629 31.6919 67.8652 31.2655V23.4028C67.8652 22.9747 67.5183 22.6278 67.0902 22.6278H58.2631C57.8376 22.6278 57.4924 22.9729 57.4924 23.3985V23.4028V31.2654C57.4924 31.6911 57.8376 32.0362 58.2631 32.0362Z" fill="#2496ED"/>
</svg>
