<svg width="100" height="38" viewBox="0 0 100 38" fill="none" xmlns="http://www.w3.org/2000/svg">
<path d="M7.54671 11.3129C7.35195 11.3129 7.30326 11.2155 7.40064 11.0695L8.4231 9.75489C8.52048 9.60882 8.76392 9.51144 8.95867 9.51144H26.3404C26.5352 9.51144 26.5839 9.65751 26.4865 9.80357L25.6588 11.0695C25.5614 11.2155 25.318 11.3616 25.1719 11.3616L7.54671 11.3129ZM0.194754 15.7923C0 15.7923 -0.0486884 15.6949 0.0486884 15.5488L1.07115 14.2342C1.16852 14.0882 1.41196 13.9908 1.60672 13.9908H23.8086C24.0034 13.9908 24.1008 14.1368 24.0521 14.2829L23.6626 15.4514C23.6139 15.6462 23.4191 15.7436 23.2244 15.7436L0.194754 15.7923ZM11.9774 20.2716C11.7826 20.2716 11.7339 20.1255 11.8313 19.9795L12.5129 18.7622C12.6103 18.6162 12.8051 18.4701 12.9998 18.4701H22.7375C22.9323 18.4701 23.0296 18.6162 23.0296 18.8109L22.9323 19.9795C22.9323 20.1742 22.7375 20.3203 22.5914 20.3203L11.9774 20.2716ZM62.5159 10.4365C59.4486 11.2155 57.355 11.7998 54.3363 12.5788C53.606 12.7736 53.5573 12.8223 52.9243 12.0919C52.194 11.2642 51.6584 10.7287 50.636 10.2418C47.5686 8.73243 44.5986 9.17062 41.8234 10.9721C38.5126 13.1144 36.8085 16.2791 36.8571 20.2229C36.9058 24.118 39.5837 27.3314 43.4301 27.867C46.7409 28.3052 49.5161 27.1367 51.7071 24.6535C52.1453 24.118 52.5348 23.5337 53.0217 22.8521H43.6248C42.6024 22.8521 42.3589 22.2191 42.6998 21.3914C43.3327 19.8821 44.5012 17.3503 45.1829 16.0844C45.3289 15.7923 45.6698 15.3054 46.4001 15.3054H64.1227C64.0253 16.62 64.0253 17.9345 63.8305 19.2491C63.295 22.7547 61.9804 25.9681 59.8381 28.7921C56.3325 33.4175 51.7558 36.2901 45.9619 37.0691C41.1904 37.702 36.7598 36.777 32.8647 33.8557C29.2617 31.1291 27.2168 27.5262 26.6813 23.0468C26.0483 17.7398 27.6063 12.9683 30.8198 8.78112C34.2767 4.25309 38.8534 1.38048 44.4525 0.35802C49.0293 -0.469683 53.4112 0.0658897 57.355 2.74375C59.9355 4.44785 61.7856 6.78489 63.0028 9.60882C63.295 10.047 63.1002 10.2905 62.5159 10.4365Z" fill="#00ACD7"/>
<path d="M78.6318 37.3613C74.2012 37.2639 70.16 35.998 66.7518 33.0767C63.8792 30.5936 62.0778 27.4289 61.4935 23.6799C60.6171 18.1781 62.1264 13.3092 65.4372 8.97595C68.9915 4.30186 73.2761 1.86744 79.07 0.844986C84.0362 -0.031406 88.7103 0.455478 92.9462 3.32809C96.7926 5.95727 99.1783 9.51152 99.8112 14.1856C100.639 20.7585 98.7401 26.1143 94.2121 30.691C90.9986 33.9531 87.0549 35.998 82.5269 36.9231C81.2123 37.1665 79.8977 37.2152 78.6318 37.3613ZM90.2196 17.6912C90.1709 17.0582 90.1709 16.5713 90.0736 16.0845C89.1972 11.2643 84.7665 8.53776 80.1411 9.6089C75.6131 10.6314 72.6918 13.504 71.6207 18.0807C70.7443 21.8784 72.5944 25.7248 76.1 27.2828C78.7779 28.4513 81.4557 28.3053 84.0362 26.9907C87.8826 24.9944 89.9762 21.8784 90.2196 17.6912Z" fill="#00ACD7"/>
</svg>
