<svg width="33" height="33" viewBox="0 0 33 33" fill="none" xmlns="http://www.w3.org/2000/svg">
<path d="M17.0185 21.5191C19.4588 18.3697 22.8374 10.2061 23.1912 3.90752C26.0912 3.03874 28.7185 2.4421 31.2648 2.73176C33.8508 8.64666 27.6203 23.2486 23.4387 23.7446C20.5835 24.0832 19.1052 23.9806 17.0185 21.5191Z" fill="url(#paint0_linear_377_3842)"/>
<path d="M0.534963 2.60468C-0.975847 12.4331 6.18905 27.7994 16.2299 32.3894C20.5529 30.7743 24.8083 24.5066 24.8083 24.5066C24.8083 24.5066 18.2201 27.3444 13.6952 19.368C9.80564 14.1056 8.43128 3.35309 8.43128 3.35309C8.43128 3.35309 3.42173 2.35565 0.534963 2.60468Z" fill="#0561BC"/>
<path d="M0.534963 2.60468C-0.975847 12.4331 6.18905 27.7994 16.2299 32.3894C20.5529 30.7743 24.8083 24.5066 24.8083 24.5066C24.8083 24.5066 18.2201 27.3444 13.6952 19.368C9.80564 14.1056 8.43128 3.35309 8.43128 3.35309C8.43128 3.35309 3.42173 2.35565 0.534963 2.60468Z" fill="url(#paint1_linear_377_3842)"/>
<path d="M0.534963 2.60468C-0.975847 12.4331 6.18905 27.7994 16.2299 32.3894C20.5529 30.7743 24.8083 24.5066 24.8083 24.5066C24.8083 24.5066 18.2201 27.3444 13.6952 19.368C9.80564 14.1056 8.43128 3.35309 8.43128 3.35309C8.43128 3.35309 3.42173 2.35565 0.534963 2.60468Z" stroke="#00478C"/>
<defs>
<linearGradient id="paint0_linear_377_3842" x1="27.3489" y1="1.81814" x2="22.1271" y2="24.1996" gradientUnits="userSpaceOnUse">
<stop stop-color="#00A4FF"/>
<stop offset="1" stop-color="#00468D"/>
</linearGradient>
<linearGradient id="paint1_linear_377_3842" x1="0.182807" y1="17.3628" x2="24.8934" y2="17.6703" gradientUnits="userSpaceOnUse">
<stop stop-color="#02A5FF"/>
<stop offset="1" stop-color="#00468D"/>
</linearGradient>
</defs>
</svg>
