<svg width="100" height="100" viewBox="0 0 100 100" fill="none" xmlns="http://www.w3.org/2000/svg">
<path d="M89.5728 19.4399C83.5282 11.6126 75.2981 5.75362 65.9235 2.60398C56.5488 -0.545654 46.4507 -0.84447 36.9062 1.74533C27.3617 4.33512 18.7996 9.6972 12.3027 17.1534C5.80588 24.6096 1.66609 33.825 0.406949 43.6341C-0.852194 53.4433 0.825867 63.4055 5.2289 72.2608C9.63194 81.1162 16.5622 88.4669 25.1431 93.3834C33.7241 98.2999 43.5703 100.561 53.4365 99.8814C63.3027 99.2016 72.7457 95.6112 80.5713 89.5643C102.415 72.6832 106.446 41.2913 89.5712 19.4399H89.5728Z" fill="#FF6C37"/>
<path d="M66.8635 31.8587L45.781 53.1085L39.8232 46.9836C60.5729 26.2337 62.6557 28.1087 66.865 31.8587H66.8635Z" fill="white"/>
<path d="M45.7808 53.6896C45.5941 53.685 45.4158 53.6109 45.2809 53.4818L39.2809 47.4818C39.1458 47.342 39.0703 47.1552 39.0703 46.9608C39.0703 46.7663 39.1458 46.5795 39.2809 46.4397C59.7385 25.982 62.5307 26.9398 67.3635 31.3148C67.4444 31.3796 67.5091 31.4623 67.5525 31.5564C67.5959 31.6505 67.6168 31.7534 67.6135 31.857C67.6447 32.0601 67.5666 32.2679 67.4057 32.3992L46.323 53.4834C46.1752 53.6189 45.9814 53.6932 45.7808 53.6912V53.6896ZM40.8637 46.9818L45.7808 51.899L65.7807 31.8992C65.0901 31.0338 64.1048 30.4533 63.0131 30.2688C61.9215 30.0843 60.8001 30.3088 59.8635 30.8992C56.2386 32.5242 50.4058 37.4819 40.8637 46.9818Z" fill="#FF6C37"/>
<path d="M51.823 58.9833L46.073 53.1084L67.1557 32.2743C72.8229 37.8164 64.4057 47.0663 51.823 58.9817V58.9833Z" fill="white"/>
<path d="M51.8231 59.7333C51.6387 59.7186 51.4636 59.6459 51.3231 59.5255L45.4482 53.7756C45.3601 53.5619 45.3601 53.322 45.4482 53.1084C45.3857 52.933 45.3857 52.7415 45.4482 52.5662L66.5308 31.4836C66.6774 31.3459 66.871 31.2692 67.0722 31.2692C67.2734 31.2692 67.467 31.3459 67.6136 31.4836C68.2964 32.112 68.8358 32.8801 69.1952 33.7356C69.5546 34.5911 69.7255 35.5139 69.6964 36.4414C69.6964 42.0663 63.2793 49.149 52.3637 59.4833C52.2179 59.6276 52.026 59.7161 51.8216 59.7333H51.8231ZM47.156 53.1084L51.8637 57.8146C60.1965 49.9397 68.1558 41.8148 68.1964 36.3148C68.2417 35.1489 67.8563 34.007 67.1136 33.107L47.156 53.1084Z" fill="#FF6C37"/>
<path d="M39.9889 47.1084L44.1561 51.2756C44.1827 51.299 44.204 51.3279 44.2186 51.3602C44.2332 51.3926 44.2407 51.4276 44.2407 51.4631C44.2407 51.4986 44.2332 51.5336 44.2186 51.5659C44.204 51.5983 44.1827 51.6271 44.1561 51.6506L35.364 53.5256C35.1865 53.5639 35.0014 53.5431 34.8368 53.4665C34.6722 53.3898 34.5371 53.2615 34.4522 53.1011C34.3673 52.9406 34.3371 52.7567 34.3663 52.5775C34.3955 52.3983 34.4825 52.2336 34.614 52.1084L39.7389 47.0256C39.7389 47.0256 39.9061 47.0256 39.9889 47.1084Z" fill="white"/>
<path d="M35.156 54.3584C34.8782 54.3549 34.6059 54.2803 34.3652 54.1416C34.1245 54.0029 33.9234 53.8048 33.781 53.5662C33.6208 53.264 33.5627 52.9181 33.6153 52.5802C33.668 52.2422 33.8286 51.9304 34.0732 51.6913L39.1559 46.5663C39.3392 46.4025 39.5765 46.3119 39.8223 46.3119C40.0682 46.3119 40.3054 46.4025 40.4887 46.5663L44.6559 50.7334C44.9027 50.9678 44.9996 51.3225 44.9059 51.6506C44.8121 51.9787 44.5371 52.2397 44.1981 52.3178L35.406 54.1928L35.156 54.3584ZM39.8231 48.0257L35.1154 52.7334L42.9074 51.0663L39.8231 48.0257Z" fill="#FF6C37"/>
<path d="M78.0731 20.1494C75.0575 17.24 70.3199 17.1182 67.1574 19.8635C63.9949 22.6087 63.4542 27.3212 65.9168 30.7118C68.3793 34.1024 73.0215 35.0524 76.6153 32.8993L70.9481 27.2321L78.0731 20.1494Z" fill="white"/>
<path d="M72.448 34.8148C70.7154 34.7926 69.0277 34.2611 67.5951 33.2864C66.1626 32.3117 65.0485 30.937 64.3917 29.3336C63.7354 27.7314 63.5633 25.972 63.8965 24.273C64.2298 22.5739 65.0538 21.0099 66.2667 19.7743C67.9349 18.1368 70.1791 17.2194 72.5167 17.2194C74.8543 17.2194 77.0986 18.1368 78.7667 19.7743C78.9261 19.9087 79.0167 20.1071 79.0167 20.3165C79.0163 20.4195 78.9938 20.5212 78.9507 20.6148C78.9076 20.7083 78.8448 20.7915 78.7667 20.8587L72.0167 27.2336L77.1417 32.2758C77.2248 32.3551 77.2871 32.4535 77.3233 32.5625C77.3596 32.6714 77.3686 32.7876 77.3495 32.9008C77.3372 33.01 77.301 33.1152 77.2435 33.2089C77.186 33.3026 77.1086 33.3825 77.0167 33.443C75.6399 34.3036 74.0571 34.7785 72.4339 34.818L72.448 34.8148ZM72.448 18.6478C69.4792 18.6634 66.823 20.4493 65.7089 23.179C64.5949 25.9087 65.2011 29.0508 67.2824 31.1477C68.3176 32.1889 69.6431 32.8932 71.0853 33.1684C72.5276 33.4436 74.0193 33.2768 75.3652 32.6899L70.448 27.7727C70.3698 27.7102 70.3067 27.6309 70.2633 27.5407C70.22 27.4505 70.1975 27.3517 70.1975 27.2516C70.1975 27.1515 70.22 27.0527 70.2633 26.9625C70.3067 26.8723 70.3698 26.793 70.448 26.7305L76.948 20.1884C75.6559 19.1981 74.0759 18.6566 72.448 18.6462V18.6478Z" fill="#FF6C37"/>
<path d="M78.1976 20.2743L71.0728 27.357L76.7398 33.0241C77.3102 32.6967 77.8412 32.3051 78.3226 31.857C79.8079 30.287 80.6251 28.2014 80.6018 26.0404C80.5785 23.8793 79.7164 21.8118 78.1976 20.2743Z" fill="white"/>
<path d="M76.6135 33.6493C76.5199 33.6544 76.4263 33.6383 76.3398 33.6023C76.2532 33.5664 76.1759 33.5114 76.1135 33.4415L70.4463 27.7743C70.3682 27.7118 70.3051 27.6325 70.2617 27.5423C70.2183 27.4521 70.1958 27.3533 70.1958 27.2532C70.1958 27.1532 70.2183 27.0544 70.2617 26.9641C70.3051 26.8739 70.3682 26.7947 70.4463 26.7322L77.5291 19.7744C77.5975 19.6712 77.6904 19.5866 77.7994 19.5281C77.9085 19.4696 78.0303 19.439 78.1541 19.439C78.2778 19.439 78.3997 19.4696 78.5087 19.5281C78.6178 19.5866 78.7107 19.6712 78.7791 19.7744C79.6106 20.5891 80.2711 21.5615 80.7221 22.6347C81.173 23.7079 81.4053 24.8603 81.4053 26.0243C81.4053 27.1884 81.173 28.3408 80.7221 29.414C80.2711 30.4872 79.6106 31.4596 78.7791 32.2743C78.2886 32.7945 77.7274 33.2432 77.1119 33.6071C76.9569 33.6852 76.7778 33.7003 76.6119 33.6493H76.6135ZM72.0307 27.2337L76.7385 31.9415C77.0623 31.7145 77.3689 31.4638 77.6556 31.1915C79.0396 29.8113 79.8191 27.9382 79.8228 25.9837C79.826 24.2346 79.1885 22.5448 78.0306 21.2338L72.0307 27.2337Z" fill="#FF6C37"/>
<path d="M67.7387 32.7336C67.1744 32.2037 66.4293 31.9087 65.6551 31.9087C64.881 31.9087 64.1359 32.2037 63.5715 32.7336L44.6982 51.5648L47.8232 54.732L67.7809 37.2321C68.0852 36.9404 68.3267 36.5894 68.4903 36.2009C68.6539 35.8124 68.7363 35.3945 68.7324 34.9729C68.7284 34.5514 68.6382 34.1351 68.4673 33.7497C68.2964 33.3643 68.0485 33.018 67.7387 32.7321V32.7336Z" fill="white"/>
<path d="M47.6561 55.4834C47.4693 55.4788 47.291 55.4047 47.1561 55.2756L43.9889 52.1085C43.8538 51.9686 43.7783 51.7818 43.7783 51.5874C43.7783 51.3929 43.8538 51.2061 43.9889 51.0663L62.8637 32.2743C63.4074 31.7313 64.1017 31.3641 64.8565 31.2205C65.6113 31.0768 66.3919 31.1632 67.097 31.4685C67.8021 31.7739 68.3992 32.284 68.8109 32.9328C69.2226 33.5815 69.4299 34.339 69.4059 35.107C69.3842 35.6283 69.2588 36.1401 69.0369 36.6123C68.815 37.0845 68.5012 37.5076 68.1137 37.857L48.1561 55.3569C48.0109 55.4596 47.8325 55.5042 47.6561 55.4819V55.4834ZM45.4483 51.5647L47.5311 53.6897L67.1137 36.6477C67.5981 36.2258 67.8871 35.6227 67.9059 34.9805C67.9246 34.3383 67.6715 33.7102 67.1981 33.2727C66.7609 32.8373 66.169 32.5929 65.552 32.5929C64.935 32.5929 64.3431 32.8373 63.9059 33.2727L45.4483 51.5647Z" fill="#FF6C37"/>
<path d="M30.0733 73.0239C30.02 73.0964 29.9913 73.184 29.9913 73.2739C29.9913 73.3639 30.02 73.4515 30.0733 73.5239L30.9061 77.1489C30.9395 77.3622 30.9079 77.5807 30.8153 77.7757C30.7228 77.9708 30.5737 78.1335 30.3874 78.2427C30.2017 78.3512 29.9864 78.3981 29.7725 78.3765C29.5585 78.3549 29.3569 78.2659 29.1968 78.1223L23.489 72.6224L41.281 54.6897H47.4481L51.6152 58.8569C45.1149 64.5403 37.8669 69.3069 30.0733 73.0239Z" fill="white"/>
<path d="M29.6983 79.1488C29.2264 79.1394 28.7608 78.9457 28.4483 78.6066L22.9905 73.1488C22.9124 73.0863 22.8492 73.0071 22.8059 72.9169C22.7625 72.8266 22.74 72.7278 22.74 72.6278C22.74 72.5277 22.7625 72.4289 22.8059 72.3387C22.8492 72.2485 22.9124 72.1692 22.9905 72.1067L40.906 54.149C41.0063 54.0424 41.1374 53.9698 41.281 53.9412H47.4887C47.6505 53.884 47.827 53.884 47.9887 53.9412L52.1559 58.1084C52.2351 58.1814 52.2954 58.2726 52.3316 58.3741C52.3678 58.4757 52.3788 58.5845 52.3637 58.6912C52.3666 58.7947 52.3456 58.8975 52.3022 58.9916C52.2589 59.0856 52.1943 59.1684 52.1137 59.2334L51.7809 59.5255C45.2543 64.9666 38.0738 69.5715 30.4061 73.2332L31.1983 76.6082C31.2595 76.8685 31.2618 77.1393 31.2051 77.4007C31.1484 77.662 31.034 77.9075 30.8704 78.119C30.7068 78.3306 30.498 78.5029 30.2592 78.6235C30.0205 78.7441 29.7579 78.8098 29.4905 78.816L29.6983 79.1488ZM24.6155 72.6067L29.5311 77.5644C29.5769 77.6053 29.6361 77.6279 29.6975 77.6279C29.7589 77.6279 29.8181 77.6053 29.8639 77.5644C29.8945 77.5219 29.911 77.4708 29.911 77.4183C29.911 77.3659 29.8945 77.3148 29.8639 77.2723L29.0311 73.6473C28.9655 73.3871 28.9918 73.1123 29.1058 72.8694C29.2197 72.6264 29.4141 72.4304 29.6561 72.3145C37.1176 68.7016 44.113 64.1963 50.4887 58.8974L47.0716 55.4803H41.4888L24.6155 72.6067Z" fill="#FF6C37"/>
<path d="M19.1983 76.8988L23.3654 72.7317L29.7825 79.1488L19.5748 78.441C19.3996 78.4272 19.2331 78.3585 19.0993 78.2446C18.9654 78.1306 18.8709 77.9773 18.8293 77.8065C18.7878 77.6357 18.8012 77.4561 18.8677 77.2934C18.9343 77.1307 19.0505 76.9931 19.1998 76.9004L19.1983 76.8988Z" fill="white"/>
<path d="M29.906 79.7739L19.739 79.0661C19.1359 79.0098 18.6171 78.5973 18.4046 78.0458C18.1921 77.4942 18.3218 76.8395 18.739 76.3989L22.9061 72.2317C23.046 72.0966 23.2328 72.0211 23.4272 72.0211C23.6216 72.0211 23.8085 72.0966 23.9483 72.2317L30.3232 78.6067C30.4115 78.7276 30.459 78.8734 30.459 79.0231C30.459 79.1728 30.4115 79.3186 30.3232 79.4395C30.2268 79.5953 30.0794 79.713 29.906 79.7723V79.7739ZM19.739 77.4411L28.0717 77.9832L23.4889 73.6911L19.739 77.4411Z" fill="#FF6C37"/>
<path d="M48.0308 55.1928L39.6138 56.485L44.4887 51.6522L48.0308 55.1928Z" fill="white"/>
<path d="M39.6138 57.274C39.4739 57.2777 39.336 57.2401 39.2174 57.1659C39.0987 57.0917 39.0046 56.9842 38.9466 56.8569C38.8579 56.7362 38.8101 56.5903 38.8101 56.4405C38.8101 56.2906 38.8579 56.1448 38.9466 56.024L43.7793 51.149C43.9259 51.0113 44.1196 50.9346 44.3207 50.9346C44.5219 50.9346 44.7155 51.0113 44.8621 51.149L48.4058 54.6897C48.4766 54.8019 48.5141 54.932 48.5141 55.0647C48.5141 55.1974 48.4766 55.3274 48.4058 55.4397C48.371 55.5765 48.2976 55.7004 48.1942 55.7966C48.0909 55.8927 47.962 55.9571 47.823 55.9819L39.4904 57.274H39.6138ZM44.4887 52.7319L41.7809 55.4397L46.448 54.7319L44.4887 52.7319Z" fill="#FF6C37"/>
<path d="M48.0309 55.1898L42.156 55.9398C41.9988 55.9755 41.8342 55.9596 41.6868 55.8944C41.5393 55.8292 41.4168 55.7182 41.3374 55.578C41.2579 55.4377 41.2258 55.2755 41.2458 55.1155C41.2657 54.9555 41.3367 54.8063 41.4482 54.6898L44.4903 51.6476L48.0309 55.1898Z" fill="white"/>
<path d="M41.9887 56.7335C41.7164 56.7308 41.4496 56.6562 41.2155 56.517C40.9814 56.3779 40.7883 56.1792 40.6559 55.9413C40.4968 55.6561 40.4351 55.3267 40.4802 55.0032C40.5253 54.6798 40.6748 54.3799 40.9059 54.1491L43.948 51.1069C44.0947 50.9692 44.2883 50.8925 44.4894 50.8925C44.6906 50.8925 44.8842 50.9692 45.0308 51.1069L48.573 54.6491C48.6783 54.7489 48.7525 54.8771 48.7864 55.0182C48.8203 55.1593 48.8126 55.3072 48.7641 55.444C48.7156 55.5808 48.6285 55.7006 48.5134 55.7888C48.3982 55.8771 48.2599 55.93 48.1152 55.9413L42.2824 56.6913L41.9887 56.7335ZM41.9887 55.1913L46.4058 54.6491L44.448 52.6913L41.9481 55.1913H41.9887ZM78.2384 25.0665C78.1599 24.935 78.0358 24.8369 77.8898 24.7908C77.7438 24.7447 77.5859 24.7539 77.4462 24.8165C77.3772 24.8514 77.316 24.8999 77.266 24.9589C77.2161 25.0179 77.1786 25.0864 77.1556 25.1602C77.1092 25.3092 77.1238 25.4705 77.1962 25.6087C77.4884 26.2227 77.4071 26.9493 76.9884 27.4836C76.9364 27.5351 76.8956 27.5968 76.8687 27.6649C76.8418 27.7329 76.8294 27.8058 76.8321 27.879C76.8336 28.0255 76.8893 28.1663 76.9884 28.2743C77.0953 28.3165 77.2143 28.3165 77.3212 28.2743C77.4182 28.2986 77.5201 28.296 77.6157 28.2665C77.7113 28.237 77.7969 28.1819 77.8634 28.1071C78.2065 27.687 78.4237 27.1784 78.4901 26.6401C78.5565 26.1018 78.4692 25.5557 78.2384 25.0649V25.0665Z" fill="#FF6C37"/>
</svg>
