<svg width="97" height="100" viewBox="0 0 97 100" fill="none" xmlns="http://www.w3.org/2000/svg">
<path d="M96.4716 59.9027C95.8902 58.137 94.3673 56.9072 92.3978 56.6121C91.4691 56.4731 90.4055 56.5323 89.1469 56.7925C86.9532 57.2464 85.3257 57.4192 84.138 57.4526C88.6212 49.8623 92.2667 41.2068 94.3654 33.059C97.759 19.8842 95.9455 13.8823 93.8264 11.1675C88.2183 3.98172 80.0361 0.121465 70.1652 0.00334804C64.8994 -0.0612175 60.2768 0.981325 57.8653 1.73104C55.62 1.33378 53.2059 1.11198 50.6728 1.07096C45.9244 0.994998 41.729 2.03298 38.1442 4.1663C36.1595 3.4933 32.9742 2.54457 29.2958 1.93917C20.6444 0.514935 13.6716 1.6247 8.57139 5.23771C2.3955 9.61221 -0.467472 17.2127 0.0620198 27.828C0.230185 31.1984 2.1103 41.4529 5.0706 51.178C6.77195 56.7678 8.58616 61.4097 10.4629 64.976C13.1243 70.033 15.9722 73.011 19.1692 74.0805C20.961 74.679 24.2168 75.0983 27.6411 72.2385C28.0751 72.7656 28.6542 73.2894 29.4227 73.7759C30.3987 74.3931 31.5922 74.8974 32.7841 75.1963C37.0795 76.273 41.1029 76.0038 44.5356 74.4945C44.5568 75.1067 44.573 75.6916 44.5867 76.1967C44.6094 77.0159 44.6321 77.8192 44.6621 78.5704C44.8654 83.6498 45.2101 87.5994 46.2312 90.3628C46.2873 90.5147 46.3626 90.7464 46.4422 90.9921C46.9516 92.5561 47.8034 95.1744 49.9706 97.2249C52.2147 99.3491 54.9292 100 57.4153 100C58.6622 100 59.8518 99.8364 60.8953 99.6123C64.6146 98.8129 68.8388 97.5952 71.8945 93.2321C74.7836 89.1075 76.188 82.8952 76.4422 73.1067C76.4751 72.8298 76.5054 72.5655 76.5346 72.3137L76.5952 71.7964L77.2758 71.8564L77.4512 71.8682C81.2394 72.0414 85.8715 71.2358 88.7163 69.9107C90.9642 68.8647 98.1676 65.0512 96.4716 59.9027Z" fill="black"/>
<path d="M89.9943 60.9039C78.7303 63.234 77.9558 59.4098 77.9558 59.4098C89.8485 41.7139 94.8204 19.2515 90.5303 13.7539C78.8254 -1.24237 58.5641 5.84997 58.2259 6.0338L58.1172 6.05354C55.8917 5.59019 53.4014 5.31446 50.6021 5.2685C45.5056 5.18495 41.6393 6.60843 38.7055 8.83936C38.7055 8.83936 2.56141 -6.092 4.24268 27.6181C4.60022 34.7894 14.4932 81.8809 26.2927 67.6571C30.6056 62.4558 34.773 58.0581 34.773 58.0581C36.8424 59.4367 39.3202 60.1401 41.9177 59.8876L42.1196 59.7159C42.0567 60.3615 42.0855 60.9931 42.2002 61.741C39.1604 65.1466 40.0539 65.7444 33.9772 66.9989C27.8282 68.2697 31.4403 70.5318 33.7988 71.1235C36.658 71.8402 43.2725 72.8557 47.7417 66.5819L47.5637 67.2978C48.7545 68.2545 49.5908 73.52 49.4507 78.2937C49.3105 83.067 49.217 86.3443 50.1551 88.9041C51.0941 91.4639 52.0292 97.2236 60.0178 95.5072C66.6925 94.0728 70.1516 90.3557 70.633 84.1551C70.9743 79.7472 71.7473 80.3989 71.7958 76.4577L72.4158 74.5922C73.1305 68.6168 72.5294 66.689 76.6415 67.5857L77.6414 67.6738C80.6676 67.8117 84.6293 67.1854 86.9545 66.1018C91.9608 63.7721 94.9302 59.8819 89.9936 60.9039H89.9943Z" fill="#336791"/>
<path d="M40.8211 30.8251C39.806 30.6834 38.8868 30.8144 38.4217 31.1676C38.1604 31.3663 38.0793 31.5964 38.0574 31.7548C37.999 32.1745 38.2922 32.6386 38.4725 32.8779C38.9823 33.5554 39.7269 34.021 40.4639 34.1236C40.5707 34.1388 40.6772 34.1456 40.7828 34.1456C42.0119 34.1456 43.1296 33.1859 43.228 32.4775C43.3511 31.5903 42.0668 30.999 40.8211 30.8254V30.8251ZM74.448 30.8532C74.3511 30.1578 73.1171 29.9595 71.946 30.1228C70.7764 30.2861 69.6425 30.8156 69.7371 31.5125C69.8129 32.0545 70.7889 32.9796 71.9441 32.9796C72.0418 32.9796 72.1403 32.9732 72.2395 32.9591C73.0107 32.852 73.5765 32.361 73.8454 32.078C74.2545 31.6466 74.4916 31.1657 74.448 30.8532Z" fill="white"/>
<path d="M93.7427 60.6392C93.3132 59.3368 91.9307 58.9179 89.634 59.3934C82.8146 60.8048 80.3724 59.8272 79.5706 59.2351C84.8712 51.1378 89.2318 41.3496 91.5842 32.2174C92.6985 27.8915 93.3139 23.874 93.3643 20.5994C93.42 17.0053 92.8094 14.3642 91.5505 12.7508C86.4744 6.2468 79.0244 2.75798 70.0064 2.66227C63.8066 2.59238 58.5685 4.18336 57.5531 4.63076C55.4146 4.09752 53.0834 3.77014 50.5454 3.72836C45.8913 3.65278 41.8682 4.77014 38.5375 7.04779C37.0907 6.50772 33.3517 5.22058 28.779 4.48188C20.8737 3.20576 14.5918 4.17272 10.1089 7.35733C4.7598 11.1576 2.29034 17.9506 2.76871 27.5474C2.92967 30.776 4.76434 40.7085 7.65951 50.2206C11.4705 62.7402 15.6133 69.8276 19.9719 71.2857C20.4821 71.4562 21.0703 71.5755 21.7191 71.5755C23.3091 71.5755 25.2585 70.8569 27.2867 68.4117C29.7606 65.4359 32.3196 62.5322 34.9606 59.7045C36.6741 60.6266 38.5565 61.1416 40.4816 61.1933C40.4854 61.2438 40.4904 61.2943 40.4949 61.3445C40.1635 61.7407 39.839 62.1427 39.5215 62.5503C38.1876 64.2484 37.9099 64.602 33.616 65.4884C32.3946 65.7414 29.1506 66.4117 29.1028 68.692C29.0513 71.1835 32.9377 72.2299 33.3805 72.3408C34.9235 72.7281 36.4101 72.9192 37.8277 72.9192C41.2755 72.9192 44.3097 71.7828 46.7344 69.5842C46.6598 78.4661 47.0291 87.2182 48.0926 89.8848C48.9638 92.0678 51.0916 97.4028 57.8129 97.4025C58.7992 97.4025 59.8847 97.2874 61.0789 97.0307C68.0937 95.5229 71.14 92.4138 72.3183 85.5596C72.9489 81.8965 74.031 73.1493 74.54 68.4573C75.6142 68.7934 76.997 68.9473 78.4919 68.9469C81.6098 68.9469 85.2075 68.2826 87.4637 67.2325C89.9983 66.0521 94.5721 63.1557 93.7427 60.6392ZM77.0375 28.9336C77.0144 30.3188 76.8243 31.5763 76.6228 32.8889C76.4057 34.3006 76.1815 35.7601 76.1251 37.5319C76.0694 39.2562 76.2842 41.0488 76.4917 42.7826C76.9114 46.2843 77.342 49.8894 75.6751 53.4466C75.3982 52.9546 75.1516 52.4461 74.9366 51.924C74.7294 51.4203 74.2794 50.6114 73.6564 49.4917C71.2328 45.1332 65.5572 34.9265 68.4626 30.7616C69.328 29.522 71.5244 28.2474 77.0375 28.9336ZM70.3548 5.46707C78.4351 5.64596 84.8269 8.67713 89.3522 14.4759C92.8231 18.9237 89.0011 39.162 77.9367 56.6217C77.8254 56.4798 77.7135 56.3384 77.6011 56.1974L77.4609 56.022C80.3201 51.287 79.7611 46.6022 79.2634 42.4488C79.0589 40.7442 78.8657 39.1343 78.915 37.6219C78.9657 36.0192 79.1771 34.6443 79.3816 33.315C79.6327 31.6769 79.8884 29.9819 79.8179 27.9838C79.8706 27.7741 79.8918 27.5265 79.8641 27.2325C79.6842 25.3165 77.5026 19.5819 73.0561 14.3916C70.6237 11.5526 67.0767 8.37557 62.2337 6.23275C64.3168 5.79978 67.1654 5.39605 70.3548 5.46707ZM25.1404 66.6221C22.9057 69.3164 21.3627 68.7999 20.8552 68.6305C17.5487 67.5245 13.7119 60.5165 10.3293 49.4036C7.40234 39.7879 5.6919 30.1186 5.55631 27.4072C5.12908 18.8322 7.20198 12.856 11.7178 9.64447C19.0671 4.41845 31.15 7.54647 36.0052 9.13288C35.9355 9.20201 35.8628 9.26657 35.7939 9.33683C27.8265 17.4053 28.0155 31.1904 28.0351 32.0332C28.0344 32.3583 28.0617 32.8186 28.0988 33.4517C28.2359 35.7704 28.4912 40.0857 27.8094 44.9725C27.1761 49.5138 28.5722 53.9585 31.639 57.1674C31.9537 57.4961 32.2845 57.809 32.6301 58.1048C31.2651 59.5708 28.2984 62.8128 25.1404 66.6221ZM33.6543 55.2309C31.1826 52.6444 30.0599 49.047 30.5739 45.3599C31.2935 40.1977 31.028 35.7016 30.8852 33.2861C30.8652 32.9481 30.8474 32.6519 30.8371 32.4183C32.001 31.3833 37.3948 28.4855 41.2414 29.3693C42.9965 29.7722 44.0661 30.9709 44.5108 33.0324C46.8121 43.7059 44.8153 48.1545 43.2109 51.7295C42.8803 52.4659 42.5678 53.1621 42.3012 53.8822L42.0944 54.439C41.5709 55.8465 41.0839 57.1553 40.782 58.398C38.1542 58.3904 35.598 57.2647 33.6543 55.2305V55.2309ZM34.0577 69.6252C33.2903 69.433 32.6002 69.0992 32.1953 68.8223C32.5336 68.6628 33.1354 68.4455 34.1792 68.2298C39.2306 67.1873 40.0109 66.4512 41.7145 64.2822C42.105 63.7847 42.5477 63.221 43.1609 62.5344L43.1617 62.5336C44.0748 61.5082 44.4926 61.6821 45.2501 61.9973C45.8641 62.2518 46.4621 63.0235 46.7045 63.8728C46.8193 64.2738 46.9481 65.035 46.5265 65.6274C42.9678 70.6241 37.7819 70.5599 34.0577 69.6252ZM60.4941 94.2938C54.3144 95.6216 52.1263 92.4598 50.6844 88.8452C49.7538 86.5118 49.2963 75.9891 49.6209 64.3684C49.6251 64.2138 49.6031 64.0646 49.5607 63.924C49.5227 63.6466 49.465 63.3721 49.388 63.1029C48.9054 61.4121 47.7294 59.9977 46.3186 59.4113C45.758 59.1785 44.7293 58.7512 43.4931 59.0683C43.7567 57.9791 44.2139 56.7489 44.7096 55.417L44.9176 54.8568C45.1516 54.2251 45.4455 53.5708 45.7561 52.878C47.4351 49.1378 49.7345 44.0147 47.2389 32.4411C46.3042 28.1061 43.1825 25.9891 38.4504 26.4809C35.6136 26.7753 33.018 27.923 31.7234 28.5812C31.445 28.7225 31.1905 28.8592 30.9527 28.9921C31.314 24.6245 32.679 16.4618 37.7853 11.2974C41.0005 8.04628 45.2823 6.4405 50.4992 6.52709C60.7785 6.69572 67.3703 11.9855 71.0904 16.3939C74.2961 20.1922 76.0319 24.0187 76.7247 26.0825C71.5149 25.5512 67.9717 26.5823 66.1757 29.1573C62.2681 34.7586 68.3134 45.6299 71.2188 50.8548C71.7517 51.8123 72.2115 52.6399 72.3561 52.9916C73.3023 55.2909 74.5271 56.826 75.4214 57.9464C75.6956 58.2897 75.9615 58.6228 76.1637 58.9137C74.5859 59.3699 71.7517 60.4238 72.01 65.692C71.8017 68.3354 70.3204 80.7115 69.5678 85.0841C68.5743 90.8608 66.4545 93.0124 60.4941 94.2942V94.2938ZM86.2885 64.6939C84.675 65.4448 81.9749 66.008 79.41 66.1292C76.5769 66.2621 75.1347 65.8109 74.7953 65.5332C74.6362 62.2503 75.8547 61.9073 77.1443 61.5442C77.3469 61.4873 77.5446 61.4314 77.7355 61.3646C77.8541 61.4614 77.984 61.5575 78.1264 61.6517C80.4035 63.1588 84.4648 63.3213 90.1987 62.1344L90.2616 62.1219C89.4882 62.8469 88.1648 63.82 86.2885 64.6939Z" fill="white"/>
</svg>
