<svg width="97" height="100" viewBox="0 0 97 100" fill="none" xmlns="http://www.w3.org/2000/svg">
<path d="M9.7281 59.7362C15.1008 59.7362 19.4562 55.3808 19.4562 50.0081C19.4562 44.6354 15.1008 40.2799 9.7281 40.2799C4.35542 40.2799 0 44.6354 0 50.0081C0 55.3808 4.35542 59.7362 9.7281 59.7362Z" fill="#FF6309"/>
<path d="M79.4846 100C84.8576 100 89.2133 95.6448 89.2133 90.2717C89.2133 84.8986 84.8576 80.5428 79.4846 80.5428C74.1116 80.5428 69.7559 84.8986 69.7559 90.2717C69.7559 95.6448 74.1116 100 79.4846 100Z" fill="#FFB515"/>
<path d="M79.4763 19.4567C84.849 19.4567 89.2044 15.1013 89.2044 9.7286C89.2044 4.35591 84.849 0.000488281 79.4763 0.000488281C74.1037 0.000488281 69.7483 4.35591 69.7483 9.7286C69.7483 15.1013 74.1037 19.4567 79.4763 19.4567Z" fill="#C90016"/>
<path d="M56.2309 25.936C68.3445 25.936 78.3946 34.9306 80.0591 46.5916H96.7256C95.9676 37.4287 92.17 28.888 85.8181 22.153C81.7502 24.2244 76.748 24.2641 72.4992 21.8117C68.2471 19.356 65.7801 15.0018 65.5435 10.4383C62.4899 9.72717 59.3649 9.36878 56.2296 9.37012C50.1479 9.37012 44.2711 10.6974 38.9263 13.2147L47.2721 27.6674C50.1198 26.5213 53.1612 25.9335 56.2309 25.936Z" fill="#FF6309"/>
<path d="M32.1601 50.0082C32.1601 42.3388 35.7648 35.4971 41.368 31.086L33.0255 16.6353C31.0493 18.0162 29.1981 19.5678 27.4931 21.2724C22.6652 26.1003 19.2029 31.9295 17.2979 38.2915C21.1365 40.7777 23.6784 45.0941 23.6784 50.0082C23.6784 54.9209 21.1365 59.238 17.2979 61.7235C19.2029 68.0855 22.6652 73.914 27.4931 78.7433C29.1968 80.447 31.0464 81.9982 33.0208 83.3791L41.3647 68.9264C35.7628 64.5159 32.1601 57.6748 32.1601 50.0082Z" fill="#FFB515"/>
<path d="M80.0601 53.4135C78.4002 65.0784 68.3481 74.0789 56.2312 74.0789C53.0651 74.0789 50.0395 73.4626 47.269 72.3461L38.9238 86.7993C44.2673 89.318 50.1475 90.6459 56.2305 90.6459C59.4085 90.6459 62.5315 90.2795 65.5511 89.5764C65.7837 85.0069 68.2507 80.6448 72.5061 78.1878C76.7562 75.7341 81.7605 75.7725 85.8284 77.8485C92.1744 71.1123 95.9693 62.573 96.7241 53.4135H80.0601Z" fill="#C90016"/>
</svg>
